<svg width="250" height="150" xmlns="http://www.w3.org/2000/svg"><defs><linearGradient x2="1" id="a"><stop offset="0" stop-color="#fff"/><stop offset=".14"/><stop offset=".84"/><stop offset="1" stop-color="#fff"/></linearGradient></defs><title>background</title><path fill="#fff" d="M-1-1h252v152H-1z"/><title>Layer 1</title><path opacity=".1" fill="url(#a)" d="M41 61.5h191v25H41z"/><text font-family="Helvetica, Arial, sans-serif" font-size="24" y="45.25" x="86" stroke-width="0" stroke="#000">A</text><text font-family="Helvetica, Arial, sans-serif" font-size="24" y="45.25" x="130" stroke-width="0" stroke="#000">B</text><text font-family="Helvetica, Arial, sans-serif" font-size="24" y="45.25" x="173" stroke-width="0" stroke="#000">C</text><text font-family="Helvetica, Arial, sans-serif" font-size="24" y="82.75" x="86" stroke-width="0" stroke="#000">D</text><text font-family="Helvetica, Arial, sans-serif" font-size="24" y="82.75" x="130" stroke-width="0" stroke="#000">E</text><text font-family="Helvetica, Arial, sans-serif" font-size="24" y="82.75" x="173.67" stroke-width="0" stroke="#000">F</text><text font-family="Helvetica, Arial, sans-serif" font-size="24" y="119" x="178" stroke-width="0" stroke="#000">I</text><text font-family="Helvetica, Arial, sans-serif" font-size="24" y="119" x="86" stroke-width="0" stroke="#000">G</text><text font-family="Helvetica, Arial, sans-serif" font-size="24" y="119" x="129.67" stroke-width="0" stroke="#000">H</text><text opacity=".8" font-family="Helvetica, Arial, sans-serif" font-size="12" y="41.5" x="27" fill-opacity="null" stroke-width="0">0</text><text opacity=".8" font-family="Helvetica, Arial, sans-serif" font-size="12" y="78.5" x="27" fill-opacity="null" stroke-width="0">1</text><text opacity=".8" font-family="Helvetica, Arial, sans-serif" font-size="12" y="115.5" x="27" fill-opacity="null" stroke-width="0">2</text><path d="M77 15H67v115h10v-15h-5V30h5m120 100h10V15h-10v15h5v85h-5"/><path opacity=".1" fill="url(#a)" d="M41 98.5h191v25H41zm0-74h191v25H41z"/></svg>