<svg width="220" height="200" xmlns="http://www.w3.org/2000/svg"><defs><linearGradient x2="1" id="a"><stop offset="0" stop-color="#fff"/><stop offset=".14"/><stop offset=".84"/><stop offset="1" stop-color="#fff"/></linearGradient></defs><title>background</title><path fill="#fff" d="M-1-1h222v202H-1z"/><title>Layer 1</title><text font-family="Helvetica, Arial, sans-serif" font-size="24" y="79.25" x="66" stroke-width="0" stroke="#000">A</text><text font-family="Helvetica, Arial, sans-serif" font-size="24" y="79.25" x="110" stroke-width="0" stroke="#000">B</text><text font-family="Helvetica, Arial, sans-serif" font-size="24" y="79.25" x="153" stroke-width="0" stroke="#000">C</text><text font-family="Helvetica, Arial, sans-serif" font-size="24" y="116.75" x="66" stroke-width="0" stroke="#000">D</text><text font-family="Helvetica, Arial, sans-serif" font-size="24" y="116.75" x="110" stroke-width="0" stroke="#000">E</text><text font-family="Helvetica, Arial, sans-serif" font-size="24" y="116.75" x="153.67" stroke-width="0" stroke="#000">F</text><text font-family="Helvetica, Arial, sans-serif" font-size="24" y="153" x="158" stroke-width="0" stroke="#000">I</text><text font-family="Helvetica, Arial, sans-serif" font-size="24" y="153" x="66" stroke-width="0" stroke="#000">G</text><text font-family="Helvetica, Arial, sans-serif" font-size="24" y="153" x="109.67" stroke-width="0" stroke="#000">H</text><text opacity=".8" font-family="Helvetica, Arial, sans-serif" font-size="12" y="35.5" x="112" fill-opacity="null" stroke-width="0">0</text><text opacity=".8" font-family="Helvetica, Arial, sans-serif" font-size="12" y="34.5" x="67" fill-opacity="null" stroke-width="0">1</text><text opacity=".8" font-family="Helvetica, Arial, sans-serif" font-size="12" y="34.5" x="23" fill-opacity="null" stroke-width="0">2</text><path d="M57 49H47v115h10v-15h-5V64h5m120 100h10V49h-10v15h5v85h-5"/><path transform="rotate(39 116.84 108.2)" opacity=".1" fill="url(#a)" d="M18.09 95.7h197.52v25H18.09z"/><path transform="rotate(39 91.88 125.2)" opacity=".1" fill="url(#a)" d="M12.2 112.71h159.36v25H12.2z"/><path transform="rotate(39 74.05 147.58)" opacity=".1" fill="url(#a)" d="M23.35 135.08h101.39v25H23.35z"/><path transform="rotate(39 139.25 89.14)" opacity=".1" fill="url(#a)" d="M57.18 76.64h164.15v25H57.18z"/><path transform="rotate(39 160.5 69.32)" opacity=".1" fill="url(#a)" d="M107.88 56.82h105.23v25H107.88z"/><text opacity=".8" font-family="Helvetica, Arial, sans-serif" font-size="12" y="73.5" x="23" fill-opacity="null" stroke-width="0">3</text><text opacity=".8" font-family="Helvetica, Arial, sans-serif" font-size="12" y="109.5" x="23" fill-opacity="null" stroke-width="0">4</text></svg>