<svg width="220" height="200" xmlns="http://www.w3.org/2000/svg"><defs><linearGradient x2="1" id="a"><stop offset="0" stop-color="#fff"/><stop offset=".14"/><stop offset=".84"/><stop offset="1" stop-color="#fff"/></linearGradient></defs><title>background</title><path fill="#fff" d="M-1-1h222v202H-1z"/><title>Layer 1</title><text font-family="Helvetica, Arial, sans-serif" font-size="24" y="79.25" x="49" stroke-width="0" stroke="#000">A</text><text font-family="Helvetica, Arial, sans-serif" font-size="24" y="79.25" x="93" stroke-width="0" stroke="#000">B</text><text font-family="Helvetica, Arial, sans-serif" font-size="24" y="79.25" x="136" stroke-width="0" stroke="#000">C</text><text font-family="Helvetica, Arial, sans-serif" font-size="24" y="116.75" x="49" stroke-width="0" stroke="#000">D</text><text font-family="Helvetica, Arial, sans-serif" font-size="24" y="116.75" x="93" stroke-width="0" stroke="#000">E</text><text font-family="Helvetica, Arial, sans-serif" font-size="24" y="116.75" x="136.67" stroke-width="0" stroke="#000">F</text><text font-family="Helvetica, Arial, sans-serif" font-size="24" y="153" x="141" stroke-width="0" stroke="#000">I</text><text font-family="Helvetica, Arial, sans-serif" font-size="24" y="153" x="49" stroke-width="0" stroke="#000">G</text><text font-family="Helvetica, Arial, sans-serif" font-size="24" y="153" x="92.67" stroke-width="0" stroke="#000">H</text><text opacity=".8" font-family="Helvetica, Arial, sans-serif" font-size="12" y="34.5" x="99" fill-opacity="null" stroke-width="0">0</text><text opacity=".8" font-family="Helvetica, Arial, sans-serif" font-size="12" y="34.5" x="143" fill-opacity="null" stroke-width="0">1</text><text opacity=".8" font-family="Helvetica, Arial, sans-serif" font-size="12" y="34.5" x="186" fill-opacity="null" stroke-width="0">2</text><path d="M40 49H30v115h10v-15h-5V64h5m120 100h10V49h-10v15h5v85h-5"/><path transform="rotate(139 100.84 109.2)" opacity=".1" fill="url(#a)" d="M2.09 96.7h197.52v25H2.09z"/><path transform="rotate(139 77.88 91.2)" opacity=".1" fill="url(#a)" d="M-1.8 78.71h159.36v25H-1.8z"/><path transform="rotate(139 54.05 73.58)" opacity=".1" fill="url(#a)" d="M3.35 61.08h101.39v25H3.35z"/><path transform="rotate(139 125.25 126.14)" opacity=".1" fill="url(#a)" d="M43.18 113.64h164.15v25H43.18z"/><path transform="rotate(139 148.5 144.32)" opacity=".1" fill="url(#a)" d="M95.88 131.82h105.23v25H95.88z"/><text opacity=".8" font-family="Helvetica, Arial, sans-serif" font-size="12" y="73.5" x="186" fill-opacity="null" stroke-width="0">3</text><text opacity=".8" font-family="Helvetica, Arial, sans-serif" font-size="12" y="109.5" x="186" fill-opacity="null" stroke-width="0" cursor="move">4</text></svg>