<svg width="220" height="200" xmlns="http://www.w3.org/2000/svg"><defs><linearGradient x2="1" id="a"><stop offset="0" stop-color="#fff"/><stop offset=".14"/><stop offset=".84"/><stop offset="1" stop-color="#fff"/></linearGradient></defs><title>background</title><path fill="#fff" d="M-1-1h222v202H-1z"/><title>Layer 1</title><text font-family="Helvetica, Arial, sans-serif" font-size="24" y="79.25" x="66" stroke-width="0" stroke="#000">A</text><text font-family="Helvetica, Arial, sans-serif" font-size="24" y="79.25" x="110" stroke-width="0" stroke="#000">B</text><text font-family="Helvetica, Arial, sans-serif" font-size="24" y="79.25" x="153" stroke-width="0" stroke="#000">C</text><text font-family="Helvetica, Arial, sans-serif" font-size="24" y="116.75" x="66" stroke-width="0" stroke="#000">D</text><text font-family="Helvetica, Arial, sans-serif" font-size="24" y="116.75" x="110" stroke-width="0" stroke="#000">E</text><text font-family="Helvetica, Arial, sans-serif" font-size="24" y="116.75" x="153.67" stroke-width="0" stroke="#000">F</text><text font-family="Helvetica, Arial, sans-serif" font-size="24" y="153" x="158" stroke-width="0" stroke="#000">I</text><text font-family="Helvetica, Arial, sans-serif" font-size="24" y="153" x="66" stroke-width="0" stroke="#000">G</text><text font-family="Helvetica, Arial, sans-serif" font-size="24" y="153" x="109.67" stroke-width="0" stroke="#000">H</text><text opacity=".8" font-family="Helvetica, Arial, sans-serif" font-size="12" y="35.5" x="71" fill-opacity="null" stroke-width="0">0</text><text opacity=".8" font-family="Helvetica, Arial, sans-serif" font-size="12" y="35.5" x="115" fill-opacity="null" stroke-width="0">1</text><text opacity=".8" font-family="Helvetica, Arial, sans-serif" font-size="12" y="35.5" x="159" fill-opacity="null" stroke-width="0">2</text><path d="M57 49H47v115h10v-15h-5V64h5m120 100h10V49h-10v15h5v85h-5"/><path opacity=".1" fill="url(#a)" d="M28.2 95.71h172.36v25H28.2z"/><text opacity=".8" font-family="Helvetica, Arial, sans-serif" font-size="12" y="74.5" x="23" fill-opacity="null" stroke-width="0">0</text><text stroke="null" opacity=".8" font-family="Helvetica, Arial, sans-serif" font-size="12" y="111.5" x="23" fill-opacity="null" stroke-width="0">1</text><path transform="rotate(90 74.88 103.7)" opacity=".1" fill="url(#a)" d="M3.7 91.21h142.36v25H3.7z"/><text stroke="null" opacity=".8" font-family="Helvetica, Arial, sans-serif" font-size="12" y="149.5" x="23" fill-opacity="null" stroke-width="0">2</text></svg>