<svg width="200" height="200" xmlns="http://www.w3.org/2000/svg"><defs><linearGradient x2="1" id="a"><stop offset="0" stop-color="#fff"/><stop offset=".14"/><stop offset=".84"/><stop offset="1" stop-color="#fff"/></linearGradient></defs><title>background</title><path fill="#fff" d="M-1-1h202v202H-1z"/><title>Layer 1</title><path transform="rotate(90 57.5 108.5)" opacity=".1" fill="url(#a)" d="M-15.5 96h146v25h-146z"/><text font-family="Helvetica, Arial, sans-serif" font-size="24" y="79.25" x="49" stroke-width="0" stroke="#000">A</text><text font-family="Helvetica, Arial, sans-serif" font-size="24" y="79.25" x="93" stroke-width="0" stroke="#000">B</text><text font-family="Helvetica, Arial, sans-serif" font-size="24" y="79.25" x="136" stroke-width="0" stroke="#000">C</text><text font-family="Helvetica, Arial, sans-serif" font-size="24" y="116.75" x="49" stroke-width="0" stroke="#000">D</text><text font-family="Helvetica, Arial, sans-serif" font-size="24" y="116.75" x="93" stroke-width="0" stroke="#000">E</text><text font-family="Helvetica, Arial, sans-serif" font-size="24" y="116.75" x="136.67" stroke-width="0" stroke="#000">F</text><text font-family="Helvetica, Arial, sans-serif" font-size="24" y="153" x="141" stroke-width="0" stroke="#000">I</text><text font-family="Helvetica, Arial, sans-serif" font-size="24" y="153" x="49" stroke-width="0" stroke="#000">G</text><text font-family="Helvetica, Arial, sans-serif" font-size="24" y="153" x="92.67" stroke-width="0" stroke="#000">H</text><text opacity=".8" font-family="Helvetica, Arial, sans-serif" font-size="12" y="29.5" x="54" fill-opacity="null" stroke-width="0">0</text><text opacity=".8" font-family="Helvetica, Arial, sans-serif" font-size="12" y="29.5" x="98" fill-opacity="null" stroke-width="0">1</text><text opacity=".8" font-family="Helvetica, Arial, sans-serif" font-size="12" y="29.5" x="141" fill-opacity="null" stroke-width="0">2</text><path d="M40 49H30v115h10v-15h-5V64h5m120 100h10V49h-10v15h5v85h-5"/><path transform="rotate(90 101.5 108.5)" opacity=".1" fill="url(#a)" d="M28.5 96h146v25h-146z"/><path transform="rotate(90 144.5 108.5)" opacity=".1" fill="url(#a)" d="M71.5 96h146v25h-146z"/></svg>